<svg width="14" height="15" viewBox="0 0 14 15" fill="none" xmlns="http://www.w3.org/2000/svg">
  <path d="M11.054 2.77069C10.7778 2.77069 10.554 2.99455 10.554 3.27069C10.554 3.54683 10.7778 3.77069 11.054 3.77069C11.3301 3.77069 11.554 3.54683 11.554 3.27069C11.554 2.99455 11.3301 2.77069 11.054 2.77069Z" fill="white"/>
  <path d="M6.92016 10.3788C6.1341 10.3788 5.46967 10.0997 5.00166 9.61822C4.53346 9.13651 4.25214 8.44216 4.25214 7.59471C4.25214 5.99377 5.362 4.84226 6.89904 4.84226C7.68941 4.84226 8.33256 5.13363 8.77903 5.61704C9.22658 6.10164 9.4854 6.78915 9.4854 7.59471C9.4854 8.44671 9.22648 9.14148 8.78311 9.62168C8.34081 10.1007 7.70356 10.3788 6.92016 10.3788Z" fill="white"/>
  <path fill-rule="evenodd" clip-rule="evenodd" d="M4.02832 10.5644C3.28325 9.79788 2.89478 8.74912 2.89478 7.59484C2.89478 5.29476 4.5628 3.48499 6.89906 3.48499C8.04245 3.48499 9.05587 3.91625 9.77621 4.69621C10.4878 5.46674 10.8428 6.499 10.8428 7.59484C10.8428 8.72054 10.4974 9.76607 9.78042 10.5426C9.05481 11.3285 8.04168 11.7364 6.92017 11.7364C5.80185 11.7364 4.77494 11.3326 4.02832 10.5644ZM3.64888 7.59473C3.64888 8.57854 3.97782 9.43041 4.56908 10.0387C5.16091 10.6476 5.98645 10.9821 6.92018 10.9821C7.85385 10.9821 8.65816 10.6464 9.22637 10.0309C9.79135 9.41903 10.0887 8.56837 10.0887 7.59473C10.0887 6.66015 9.78715 5.81942 9.22223 5.20775C8.65404 4.59254 7.84633 4.239 6.89906 4.239C5.00681 4.239 3.64888 5.68306 3.64888 7.59473Z" fill="white"/>

  <style>
    path { fill: #000; }
    @media (prefers-color-scheme: dark) {
      path { fill: #FFF; }
    }
  </style>
</svg>
