<svg width="59" height="17" viewBox="0 0 59 17" fill="none" xmlns="http://www.w3.org/2000/svg">
<path d="M12.074 3.87402C11.7978 3.87402 11.574 4.09788 11.574 4.37402C11.574 4.65017 11.7978 4.87402 12.074 4.87402C12.3501 4.87402 12.574 4.65017 12.574 4.37402C12.574 4.09788 12.3501 3.87402 12.074 3.87402Z" fill="white"/>
<path d="M7.94018 11.4822C7.15412 11.4822 6.48969 11.203 6.02168 10.7215C5.55348 10.2398 5.27216 9.54549 5.27216 8.69804C5.27216 7.0971 6.38202 5.94559 7.91906 5.94559C8.70943 5.94559 9.35258 6.23696 9.79905 6.72037C10.2466 7.20497 10.5054 7.89248 10.5054 8.69804C10.5054 9.55005 10.2465 10.2448 9.80313 10.725C9.36083 11.2041 8.72358 11.4822 7.94018 11.4822Z" fill="white"/>
<path fill-rule="evenodd" clip-rule="evenodd" d="M5.04834 11.6678C4.30327 10.9012 3.91479 9.85245 3.91479 8.69817C3.91479 6.3981 5.58282 4.58832 7.91908 4.58832C9.06247 4.58832 10.0759 5.01958 10.7962 5.79954C11.5079 6.57007 11.8628 7.60233 11.8628 8.69817C11.8628 9.82387 11.5174 10.8694 10.8004 11.646C10.0748 12.4319 9.0617 12.8397 7.94019 12.8397C6.82187 12.8397 5.79496 12.4359 5.04834 11.6678ZM4.6689 8.69806C4.6689 9.68188 4.99784 10.5337 5.5891 11.142C6.18093 11.7509 7.00647 12.0855 7.9402 12.0855C8.87387 12.0855 9.67818 11.7497 10.2464 11.1343C10.8114 10.5224 11.1087 9.67171 11.1087 8.69806C11.1087 7.76349 10.8072 6.92275 10.2422 6.31108C9.67406 5.69587 8.86635 5.34233 7.91908 5.34233C6.02683 5.34233 4.6689 6.7864 4.6689 8.69806Z" fill="white"/>
<path d="M17.9939 10.8152H14.7458V5.78918H15.8098V9.85618H17.9939V10.8152Z" fill="white"/>
<path fill-rule="evenodd" clip-rule="evenodd" d="M20.0073 10.8782C18.8873 10.8782 18.1383 10.1012 18.1383 8.93218C18.1383 7.81918 18.9153 7.00718 19.9933 7.00718C21.1763 7.00718 21.9603 7.96619 21.7853 9.18419H19.1323C19.1953 9.79318 19.4893 10.1292 19.9863 10.1292C20.4133 10.1292 20.7003 9.91919 20.8123 9.54819H21.7783C21.5683 10.3952 20.9173 10.8782 20.0073 10.8782ZM19.9723 7.72118C19.5173 7.72118 19.2303 8.01518 19.1463 8.56818H20.7563C20.7283 8.05018 20.4343 7.72118 19.9723 7.72118Z" fill="white"/>
<path fill-rule="evenodd" clip-rule="evenodd" d="M23.7934 7.00718C22.7364 7.00718 22.0784 7.84019 22.0784 8.94619C22.0784 10.0382 22.7294 10.8852 23.7374 10.8852C24.2204 10.8852 24.6264 10.6682 24.9204 10.2762V10.8152H25.8094V7.07718H24.9134V7.58818C24.6334 7.20318 24.2904 7.00718 23.7934 7.00718ZM23.9544 10.0172C23.4784 10.0172 23.0794 9.64619 23.0794 8.94619C23.0794 8.23219 23.4784 7.86819 23.9544 7.86819C24.4304 7.86819 24.8364 8.22518 24.8364 8.93218C24.8364 9.63918 24.4374 10.0172 23.9544 10.0172Z" fill="white"/>
<path d="M27.3248 9.00218V10.8152H26.3518V7.07718H27.2478V7.79818C27.5208 7.32218 28.1018 7.03518 28.7038 7.03518V8.04318C27.8778 7.98018 27.3248 8.17618 27.3248 9.00218Z" fill="white"/>
<path d="M30.0955 10.8152V8.77818C30.0955 8.17618 30.4245 7.86819 30.8095 7.86819C31.2505 7.86819 31.4675 8.17619 31.4675 8.72919V10.8152H32.4335V8.40018C32.4335 7.49718 31.9155 7.00718 31.1665 7.00718C30.6765 7.00718 30.2915 7.23818 30.0185 7.60918V7.07718H29.1225V10.8152H30.0955Z" fill="white"/>
<path fill-rule="evenodd" clip-rule="evenodd" d="M34.5355 12.2362C33.5275 12.2362 32.9327 11.6902 32.8907 10.8292H33.8287C33.8707 11.2562 34.1437 11.4802 34.6057 11.4802C35.1447 11.4802 35.4247 11.1932 35.4247 10.6542V10.1082C35.2217 10.4652 34.8367 10.6752 34.3817 10.6752C33.4647 10.6752 32.7787 9.89818 32.7787 8.84118C32.7787 7.75618 33.4227 7.00718 34.3467 7.00718C34.8507 7.00718 35.2287 7.20318 35.5017 7.58818V7.07718H36.3907V10.6402C36.3907 11.6342 35.6415 12.2362 34.5355 12.2362ZM33.7517 8.84118C33.7517 9.45018 34.0667 9.83519 34.5707 9.83519C35.0817 9.83519 35.4177 9.43618 35.4177 8.84818C35.4177 8.23918 35.0817 7.84718 34.5707 7.84718C34.0737 7.84718 33.7517 8.23218 33.7517 8.84118Z" fill="white"/>
<path d="M37.893 10.8152V9.00218C37.893 8.17618 38.446 7.98018 39.272 8.04318V7.03518C38.67 7.03518 38.089 7.32218 37.816 7.79818V7.07718H36.92V10.8152H37.893Z" fill="white"/>
<path fill-rule="evenodd" clip-rule="evenodd" d="M39.3301 8.94619C39.3301 7.84019 39.9881 7.00718 41.0451 7.00718C41.5421 7.00718 41.8851 7.20318 42.1651 7.58818V7.07718H43.0611V10.8152H42.1721V10.2762C41.8781 10.6682 41.4721 10.8852 40.9891 10.8852C39.9811 10.8852 39.3301 10.0382 39.3301 8.94619ZM40.3311 8.94619C40.3311 9.64619 40.7301 10.0172 41.2061 10.0172C41.6891 10.0172 42.0881 9.63918 42.0881 8.93218C42.0881 8.22518 41.6821 7.86819 41.2061 7.86819C40.7301 7.86819 40.3311 8.23219 40.3311 8.94619Z" fill="white"/>
<path fill-rule="evenodd" clip-rule="evenodd" d="M45.6379 10.8852C46.6459 10.8852 47.2969 10.0522 47.2969 8.94619C47.2969 7.84719 46.6459 7.00718 45.6379 7.00718C45.1619 7.00718 44.7489 7.22418 44.4619 7.62318V7.07718H43.5659V12.1662H44.5389V10.3322C44.8189 10.6962 45.1969 10.8852 45.6379 10.8852ZM45.4209 7.86819C45.8969 7.86819 46.2959 8.24619 46.2959 8.94619C46.2959 9.66019 45.8969 10.0172 45.4209 10.0172C44.9449 10.0172 44.5459 9.65319 44.5459 8.94619C44.5459 8.23919 44.9449 7.86819 45.4209 7.86819Z" fill="white"/>
<path d="M48.7184 8.77818V10.8152H47.7454V5.78918H48.7184V7.56718C48.9774 7.22418 49.2994 7.00718 49.7894 7.00718C50.5384 7.00718 51.0564 7.49718 51.0564 8.40018V10.8152H50.0904V8.72919C50.0904 8.17619 49.8734 7.86819 49.4324 7.86819C49.0474 7.86819 48.7184 8.17618 48.7184 8.77818Z" fill="white"/>
<path d="M53.1301 12.1662L54.9501 7.07718H53.9771L53.1231 9.63918L52.1851 7.07718H51.1351L52.6051 10.7732L52.0731 12.1662H53.1301Z" fill="white"/>
<path d="M14.7458 12.1678H32.4417V11.5223H14.7458V12.1678Z" fill="white"/>
</svg>
