<svg width="14" height="15" viewBox="0 0 14 15" fill="none" xmlns="http://www.w3.org/2000/svg">
<path d="M6.90539 9.77385C6.11933 9.77385 5.4549 9.49474 4.98689 9.01324C4.51869 8.53153 4.23737 7.83718 4.23737 6.98973C4.23737 5.38879 5.34723 4.23728 6.88427 4.23728C7.67464 4.23728 8.31779 4.52865 8.76426 5.01206C9.21181 5.49665 9.47063 6.18417 9.47063 6.98973C9.47063 7.84173 9.21171 8.5365 8.76834 9.0167C8.32604 9.49574 7.68879 9.77385 6.90539 9.77385Z" fill="white"/>
<path fill-rule="evenodd" clip-rule="evenodd" d="M4.01355 9.95946C3.26848 9.1929 2.88 8.14414 2.88 6.98986C2.88 4.68978 4.54803 2.88 6.88429 2.88C8.02768 2.88 9.0411 3.31127 9.76144 4.09123C10.4731 4.86176 10.828 5.89402 10.828 6.98986C10.828 8.11556 10.4826 9.16109 9.76565 9.93765C9.04004 10.7235 8.02691 11.1314 6.9054 11.1314C5.78708 11.1314 4.76017 10.7276 4.01355 9.95946ZM3.63411 6.98975C3.63411 7.97356 3.96305 8.82543 4.55431 9.43373C5.14614 10.0426 5.97168 10.3772 6.90541 10.3772C7.83908 10.3772 8.64339 10.0414 9.2116 9.42596C9.77658 8.81405 10.0739 7.96339 10.0739 6.98975C10.0739 6.05517 9.77238 5.21444 9.20746 4.60277C8.63927 3.98756 7.83156 3.63401 6.88429 3.63401C4.99204 3.63401 3.63411 5.07808 3.63411 6.98975Z" fill="white"/>
<path d="M11.0392 2.16571C10.763 2.16571 10.5392 2.38957 10.5392 2.66571C10.5392 2.94185 10.763 3.16571 11.0392 3.16571C11.3153 3.16571 11.5392 2.94185 11.5392 2.66571C11.5392 2.38957 11.3153 2.16571 11.0392 2.16571Z" fill="white"/>
<path fill-rule="evenodd" clip-rule="evenodd" d="M10.5392 2.66571C10.5392 2.38957 10.763 2.16571 11.0392 2.16571C11.3153 2.16571 11.5392 2.38957 11.5392 2.66571C11.5392 2.94185 11.3153 3.16571 11.0392 3.16571C10.763 3.16571 10.5392 2.94185 10.5392 2.66571Z" fill="#FBBF24"/>
</svg>
