<svg width="154" height="40" viewBox="0 0 154 40" fill="none" xmlns="http://www.w3.org/2000/svg">
<path d="M21.7365 32.0028C22.1166 31.389 22.4191 30.7135 22.6267 29.9862C26.7967 29.7262 30.5212 26.8497 31.6622 22.5912C33.0917 17.2565 29.9258 11.7731 24.5912 10.3437C19.2565 8.9143 13.7731 12.0801 12.3437 17.4148C12.0813 18.3942 11.9737 19.3786 12.0061 20.3421C11.3189 20.613 10.6718 20.9778 10.0843 21.425C9.90796 19.9508 10.0041 18.4189 10.4119 16.8971C12.1272 10.4956 18.7072 6.69657 25.1088 8.41187C31.5104 10.1272 35.3094 16.7072 33.5941 23.1088C32.1328 28.5624 27.1409 32.1271 21.7365 32.0028Z" fill="black"/>
<path d="M17.0054 20.0598C20.7037 21.0508 23.0991 24.4773 22.9283 28.1512C27.0214 27.6916 30.203 24.2188 30.203 20.0029C30.203 19.2277 30.0954 18.4777 29.8944 17.7669C29.1661 18.5285 28.14 19.0029 27.003 19.0029C24.7938 19.0029 23.003 17.212 23.003 15.0029C23.003 13.8659 23.4774 12.8397 24.239 12.1114C23.5282 11.9104 22.7781 11.8029 22.003 11.8029C17.5201 11.8029 13.8775 15.4001 13.8041 19.8655C14.8427 19.7167 15.9279 19.7711 17.0054 20.0598Z" fill="black"/>
<path d="M14.9349 23.3572C15.0004 23.3572 15.0576 23.4018 15.0735 23.4654C15.4301 24.8918 15.7801 25.7509 16.3757 26.3465C16.9712 26.942 17.8304 27.2921 19.2567 27.6487C19.3203 27.6646 19.365 27.7217 19.365 27.7873C19.365 27.8529 19.3203 27.91 19.2567 27.9259C17.8304 28.2825 16.9712 28.6326 16.3757 29.2281C15.7801 29.8237 15.4301 30.6828 15.0735 32.1092C15.0576 32.1728 15.0004 32.2174 14.9349 32.2174C14.8693 32.2174 14.8121 32.1728 14.7962 32.1092C14.4396 30.6828 14.0896 29.8237 13.494 29.2281C12.8985 28.6326 12.0393 28.2825 10.613 27.9259C10.5494 27.91 10.5047 27.8529 10.5047 27.7873C10.5047 27.7217 10.5494 27.6646 10.613 27.6487C12.0393 27.2921 12.8985 26.942 13.494 26.3465C14.0896 25.7509 14.4396 24.8918 14.7962 23.4654C14.8121 23.4018 14.8693 23.3572 14.9349 23.3572Z" fill="black"/>
<path d="M45.1436 26.22V13.4907H47.4309V24.2932H53.0497V26.22H45.1436Z" fill="black"/>
<path d="M58.4825 26.4064C55.6109 26.4064 53.8457 24.4921 53.8457 21.5024C53.8457 18.5563 55.6358 16.5487 58.3644 16.5487C60.7076 16.5487 62.7276 18.0156 62.7276 21.3719V22.0618H56.0709C56.0957 23.7027 57.0529 24.6661 58.5135 24.6661C59.4894 24.6661 60.1544 24.2372 60.4466 23.6654H62.6344C62.2304 25.3187 60.7076 26.4064 58.4825 26.4064ZM56.0771 20.5452H60.5771C60.5647 19.2462 59.6945 18.2952 58.4017 18.2952C57.0467 18.2952 56.1455 19.327 56.0771 20.5452Z" fill="black"/>
<path d="M63.501 23.5411C63.501 21.3843 65.2849 20.7566 67.0625 20.6385C67.7213 20.595 69.0949 20.5328 69.5052 20.5142L69.4989 19.7435C69.4989 18.8049 68.8898 18.258 67.771 18.258C66.7704 18.258 66.1612 18.7117 65.9872 19.3954H63.8242C63.9858 17.7794 65.4402 16.5487 67.8332 16.5487C69.6357 16.5487 71.7303 17.2946 71.7303 19.8367V26.22H69.586V24.9085H69.5114C69.1012 25.7041 68.1999 26.4127 66.702 26.4127C64.8871 26.4127 63.501 25.4182 63.501 23.5411ZM65.6702 23.51C65.6702 24.3367 66.3415 24.7656 67.28 24.7656C68.6412 24.7656 69.5114 23.8643 69.5114 22.7952L69.5052 22.0059C69.1012 22.0245 67.8581 22.1053 67.4043 22.1488C66.3415 22.2296 65.6702 22.6772 65.6702 23.51Z" fill="black"/>
<path d="M73.3247 26.22V16.673H75.5001V18.2642H75.5996C75.9476 17.1578 76.8675 16.5363 77.9552 16.5363C78.2038 16.5363 78.5581 16.5611 78.7695 16.5984V18.6557C78.5706 18.5936 78.0982 18.5252 77.7253 18.5252C76.4822 18.5252 75.5685 19.3892 75.5685 20.595V26.22H73.3247Z" fill="black"/>
<path d="M81.8158 20.626V26.22H79.572V16.673H81.7163V18.2952H81.8344C82.2695 17.2262 83.2453 16.5487 84.6749 16.5487C86.6452 16.5487 87.9442 17.8539 87.9442 20.1412V26.22H85.7004V20.4831C85.7066 19.2089 85.0105 18.4444 83.842 18.4444C82.6548 18.4444 81.8158 19.24 81.8158 20.626Z" fill="black"/>
<path d="M93.6977 29.999C91.1743 29.999 89.5707 28.874 89.4091 27.0715H91.6528C91.8144 27.9168 92.5976 28.3084 93.735 28.3084C95.0838 28.3084 95.9602 27.7241 95.9602 26.3194V24.5045H95.8421C95.5002 25.2006 94.7357 26.0832 93.0948 26.0832C90.8883 26.0832 89.1542 24.4796 89.1542 21.3719C89.1542 18.2331 90.8946 16.5487 93.101 16.5487C94.7917 16.5487 95.5002 17.5618 95.8483 18.2455H95.9664V16.673H98.1729V26.3754C98.1729 28.818 96.2834 29.999 93.6977 29.999ZM91.4415 21.403C91.4415 23.1682 92.2309 24.3243 93.7164 24.3243C95.1522 24.3243 95.9726 23.2365 95.9726 21.403C95.9726 19.5881 95.1708 18.3885 93.7164 18.3885C92.2122 18.3885 91.4415 19.6627 91.4415 21.403Z" fill="black"/>
<path d="M99.8009 26.22V16.673H101.976V18.2642H102.076C102.424 17.1578 103.344 16.5363 104.431 16.5363C104.68 16.5363 105.034 16.5611 105.246 16.5984V18.6557C105.047 18.5936 104.574 18.5252 104.201 18.5252C102.958 18.5252 102.045 19.3892 102.045 20.595V26.22H99.8009Z" fill="black"/>
<path d="M105.425 23.5411C105.425 21.3843 107.209 20.7566 108.986 20.6385C109.645 20.595 111.019 20.5328 111.429 20.5142L111.423 19.7435C111.423 18.8049 110.814 18.258 109.695 18.258C108.694 18.258 108.085 18.7117 107.911 19.3954H105.748C105.91 17.7794 107.364 16.5487 109.757 16.5487C111.56 16.5487 113.654 17.2946 113.654 19.8367V26.22H111.51V24.9085H111.435C111.025 25.7041 110.124 26.4127 108.626 26.4127C106.811 26.4127 105.425 25.4182 105.425 23.5411ZM107.594 23.51C107.594 24.3367 108.265 24.7656 109.204 24.7656C110.565 24.7656 111.435 23.8643 111.435 22.7952L111.429 22.0059C111.025 22.0245 109.782 22.1053 109.328 22.1488C108.265 22.2296 107.594 22.6772 107.594 23.51Z" fill="black"/>
<path d="M115.249 29.8001V16.673H117.449V18.2455H117.586C117.927 17.5618 118.63 16.5487 120.32 16.5487C122.527 16.5487 124.255 18.2766 124.255 21.4589C124.255 24.5977 122.57 26.3878 120.327 26.3878C118.679 26.3878 117.94 25.412 117.586 24.7158H117.492V29.8001H115.249ZM117.449 21.4465C117.449 23.3049 118.257 24.5542 119.705 24.5542C121.191 24.5542 121.98 23.2428 121.98 21.4465C121.98 19.6627 121.209 18.3885 119.705 18.3885C118.244 18.3885 117.449 19.5881 117.449 21.4465Z" fill="black"/>
<path d="M127.747 20.626V26.22H125.504V13.4907H127.698V18.2952H127.816C128.251 17.2138 129.183 16.5487 130.65 16.5487C132.627 16.5487 133.938 17.8291 133.938 20.1412V26.22H131.694V20.4831C131.7 19.1903 130.998 18.4444 129.817 18.4444C128.611 18.4444 127.747 19.24 127.747 20.626Z" fill="black"/>
<path d="M136.545 29.8001C136.097 29.8001 135.675 29.7877 135.376 29.7566L135.389 27.9603C135.656 27.9852 136.041 27.9914 136.334 27.9914C136.881 27.9914 137.334 27.9479 137.713 26.9285L137.906 26.4189L134.444 16.673H136.818L139.025 23.8892H139.124L141.337 16.673H143.724L139.895 27.3823C139.342 28.9051 138.341 29.8001 136.545 29.8001Z" fill="black"/>
</svg>
