<svg width="374" height="334" viewBox="0 0 374 334" fill="none" xmlns="http://www.w3.org/2000/svg">
<path d="M187.847 161.629C174.886 161.629 163.931 157.027 156.214 149.087C148.494 141.145 143.856 129.696 143.856 115.723C143.856 89.3257 162.155 70.3389 187.499 70.3389C200.531 70.3389 211.136 75.1431 218.497 83.1139C225.877 91.1042 230.144 102.44 230.144 115.723C230.144 129.771 225.875 141.227 218.565 149.145C211.272 157.043 200.764 161.629 187.847 161.629Z" fill="#FCFCFC"/>
<path fill-rule="evenodd" clip-rule="evenodd" d="M140.165 164.689C127.88 152.05 121.475 134.757 121.475 115.725C121.475 77.8 148.978 47.9595 187.499 47.9595C206.352 47.9595 223.062 55.0704 234.939 67.9308C246.673 80.6356 252.526 97.6561 252.526 115.725C252.526 134.286 246.831 151.525 235.009 164.33C223.045 177.288 206.34 184.013 187.847 184.013C169.408 184.013 152.476 177.355 140.165 164.689ZM133.909 115.723C133.909 131.945 139.332 145.991 149.081 156.021C158.84 166.061 172.452 171.576 187.848 171.576C203.242 171.576 216.504 166.04 225.873 155.893C235.189 145.803 240.092 131.777 240.092 115.723C240.092 100.313 235.12 86.4509 225.805 76.3653C216.436 66.2213 203.118 60.392 187.499 60.392C156.299 60.392 133.909 84.2025 133.909 115.723Z" fill="#FCFCFC"/>
<path d="M256.007 36.1818C251.454 36.1818 247.763 39.8729 247.763 44.4261C247.763 48.9792 251.454 52.6703 256.007 52.6703C260.561 52.6703 264.252 48.9792 264.252 44.4261C264.252 39.8729 260.561 36.1818 256.007 36.1818Z" fill="#FBBF24"/>
<path d="M369.112 17.2972C365.456 15.3017 360.711 16.3734 358.557 20.9309C356.512 25.2539 350.938 33.992 345.357 41.3116C342.565 44.9744 339.737 48.3275 337.317 50.6133C336.112 51.7507 334.963 52.6685 333.934 53.2185C332.971 53.7338 331.773 54.1043 330.749 53.4902C330.305 53.2237 329.948 52.8664 329.713 52.4117C329.481 51.962 329.401 51.4765 329.413 50.9954C329.437 50.0692 329.813 49.0427 330.322 47.9949C331.089 46.4181 332.322 44.4856 333.712 42.3063C334.175 41.5809 334.655 40.8282 335.141 40.0521C339.099 33.7351 343.707 25.5061 344.304 15.9841C344.784 8.26058 342.023 4.67665 338.863 3.45877C335.572 2.18992 331.409 3.28639 328.743 5.80118C326.969 7.47256 325.33 10.6131 323.814 14.6368C322.312 18.6212 320.985 23.3174 319.765 27.9643C319.338 29.5938 318.922 31.2217 318.517 32.808C317.774 35.7208 317.065 38.4953 316.381 40.8914C315.851 42.747 315.327 44.4073 314.801 45.7582C314.54 46.4274 314.268 47.0486 313.981 47.592C319.639 49.0372 324.781 53.6395 328.152 58.792C329.997 61.6113 331.353 64.6554 331.986 67.5446C332.616 70.4203 332.549 73.2421 331.409 75.5243C330.329 77.6875 328.75 79.3704 326.802 80.2943C324.84 81.225 322.58 81.3477 320.242 80.5128C315.624 78.8633 310.793 73.5316 306.844 63.4909C306.642 62.9769 306.894 62.3964 307.408 62.1943C307.922 61.9921 308.503 62.2449 308.705 62.7588C312.584 72.6213 317.121 77.2742 320.915 78.6293C322.783 79.2967 324.491 79.1768 325.945 78.4872C327.413 77.7909 328.699 76.4757 329.62 74.6307C330.482 72.9047 330.607 70.5951 330.032 67.9727C329.461 65.3638 328.216 62.543 326.478 59.887C322.979 54.538 317.648 50.0971 312.189 49.2649C312.156 49.2598 312.124 49.2533 312.092 49.2452C305.887 48.5515 301.588 49.8184 298.731 52.1098C295.846 54.4233 294.279 57.902 293.798 61.8927C293.316 65.8866 293.934 70.3243 295.351 74.4108C296.738 78.4082 298.866 81.9991 301.389 84.4748L301.908 84.6843L301.767 87.6021L300.293 86.196C300.249 86.1803 300.198 86.1627 300.142 86.1436C299.901 86.0619 299.556 85.9537 299.145 85.8504C298.31 85.6403 297.267 85.4662 296.303 85.539C295.339 85.6118 294.592 85.9166 294.127 86.5234C293.656 87.1379 293.302 88.2858 293.638 90.4323C293.954 92.455 295.22 94.8044 297.312 97.2124C299.391 99.6053 302.224 101.983 305.545 104.065C312.198 108.235 320.681 111.134 328.763 110.667C332.844 110.433 335.272 109.595 336.675 108.594C338.028 107.628 338.49 106.465 338.551 105.32C338.615 104.121 338.237 102.896 337.803 101.926C337.612 101.499 337.417 101.138 337.262 100.87C331.118 101.448 325.192 100.043 320.789 98.4914C318.506 97.687 316.616 96.8372 315.293 96.1871C314.631 95.8618 314.111 95.5861 313.754 95.3903C313.575 95.2924 313.437 95.2145 313.343 95.1603C313.295 95.1332 313.259 95.112 313.234 95.0973L313.204 95.08L313.196 95.0751L313.193 95.0731C312.719 94.7898 312.563 94.1754 312.847 93.7013C313.13 93.2273 313.744 93.0727 314.218 93.3557L314.223 93.3587L314.244 93.3715C314.265 93.3833 314.296 93.4014 314.337 93.4254C314.421 93.4734 314.548 93.545 314.715 93.6364C315.048 93.8192 315.542 94.0811 316.175 94.3922C317.442 95.0146 319.259 95.8317 321.454 96.605C325.435 98.0078 330.602 99.2465 335.95 98.9613L335.892 98.8797L337.723 98.7982C346.204 98.4208 350.823 93.6073 353.367 88.8148C354.646 86.4067 355.392 84.0133 355.817 82.2166C355.918 81.7925 356 81.4028 356.067 81.0554C355.695 81.2144 355.271 81.3902 354.803 81.575C353.003 82.2867 350.541 83.1417 347.926 83.6955C345.325 84.2462 342.491 84.5175 339.98 83.9922C337.429 83.4583 335.172 82.0858 333.922 79.3684C332.495 76.268 332.432 73.5966 333.455 71.3944C334.462 69.2262 336.436 67.7013 338.705 66.6794C343.218 64.6467 349.356 64.3928 353.349 65.3612C353.886 65.4913 354.215 66.0319 354.085 66.5687C353.955 67.1054 353.414 67.435 352.877 67.3048C349.268 66.4296 343.591 66.6722 339.526 68.503C337.506 69.4128 336 70.6614 335.269 72.2369C334.553 73.7783 334.491 75.8208 335.739 78.5326C336.667 80.5508 338.313 81.6 340.39 82.0346C342.508 82.4779 345.029 82.2647 347.511 81.7389C349.979 81.2162 352.328 80.4027 354.068 79.7151C354.935 79.3721 355.646 79.0625 356.139 78.8394C356.229 78.7983 356.313 78.7602 356.388 78.7254L356.395 78.6455L356.993 78.4272C359.064 77.6713 360.274 76.2288 360.82 74.4761C361.377 72.6896 361.253 70.5329 360.517 68.4361C359.031 64.2054 355.242 60.6513 350.465 60.9527L350.461 60.953C348.826 61.0495 348.019 58.9661 349.336 57.9533L349.34 57.9503C350.034 57.4222 350.938 56.788 351.992 56.0488C354.586 54.2295 358.088 51.7738 361.593 48.6963C366.504 44.3855 371.185 39.04 372.998 32.9669C375.54 24.4429 372.714 19.263 369.112 17.2972Z" fill="#FCFCFC"/>
<path d="M301.885 101.501C294.822 116.221 285.839 129.785 274.938 142.19C271.023 146.643 272.066 153.539 277.146 156.603C281.148 159.015 286.303 158.151 289.329 154.587C301.05 140.772 310.867 125.806 318.785 109.691C314.04 108.546 309.473 106.527 305.544 104.065C304.244 103.25 303.019 102.39 301.885 101.501Z" fill="#323232"/>
<path fill-rule="evenodd" clip-rule="evenodd" d="M192.77 280.215C192.77 277.12 194.491 274.231 197.449 272.079C200.406 269.927 204.539 268.565 209.15 268.565C213.761 268.565 217.895 269.927 220.851 272.079C223.809 274.231 225.53 277.12 225.53 280.215C225.53 283.31 223.809 286.199 220.851 288.351C217.895 290.503 213.761 291.865 209.15 291.865C204.539 291.865 200.406 290.503 197.449 288.351C194.491 286.199 192.77 283.31 192.77 280.215ZM209.15 269.615C206.139 269.615 203.363 270.205 201.303 271.203C199.312 272.168 197.67 273.693 197.67 275.695C197.67 277.697 199.312 279.222 201.303 280.187C203.363 281.185 206.139 281.775 209.15 281.775C212.161 281.775 214.937 281.185 216.997 280.187C218.987 279.222 220.63 277.697 220.63 275.695C220.63 273.693 218.987 272.168 216.997 271.203C214.937 270.205 212.161 269.615 209.15 269.615Z" fill="#FCFCFC"/>
<path d="M221.113 290.591C217.883 292.644 213.696 293.865 209.15 293.865C204.162 293.865 199.606 292.395 196.272 289.968C196.211 289.924 196.15 289.879 196.09 289.834C195.534 291.311 194.896 293.166 194.289 295.3C193.215 299.077 192.243 303.7 191.982 308.622C191.856 310.988 191.895 313.422 192.164 315.865C192.847 322.075 198.186 326.755 204.47 326.755H204.508L204.546 326.758C220.952 328.004 237.883 327.934 255.273 326.757L255.306 326.755H255.34C261.848 326.755 265.762 323.588 267.516 319.2C269.302 314.733 268.89 308.874 266.371 303.574C263.861 298.294 259.304 293.669 252.939 291.615C247.486 289.856 240.608 289.954 232.411 293.282C232.383 293.295 232.354 293.307 232.324 293.317C230.996 293.86 229.634 294.487 228.237 295.204L227.904 295.376C225.658 296.971 223.92 299.156 222.621 301.286C221.611 302.942 220.891 304.529 220.423 305.703C220.189 306.288 220.02 306.768 219.91 307.099C219.854 307.264 219.814 307.392 219.788 307.477C219.775 307.52 219.766 307.551 219.76 307.572L219.753 307.593L219.752 307.597C219.602 308.128 219.049 308.438 218.518 308.287C217.986 308.137 217.677 307.584 217.828 307.053L217.829 307.048L217.832 307.039L217.841 307.007C217.849 306.979 217.861 306.94 217.876 306.891C217.907 306.791 217.952 306.648 218.012 306.466C218.133 306.103 218.316 305.587 218.565 304.962C219.063 303.713 219.831 302.02 220.914 300.244C222.195 298.143 223.95 295.872 226.261 294.102C224.885 292.675 223.141 291.533 221.113 290.591Z" fill="#FCFCFC"/>
<path d="M192.482 322.391C195.076 326.25 199.511 328.742 204.432 328.755C220.924 330.005 237.928 329.935 255.374 328.755C260.307 328.747 264.034 327.075 266.566 324.392C265.499 328.664 262.128 331.884 258 332.155H258.01C238.9 333.415 220.27 333.495 202.18 332.285C197.212 331.951 193.219 327.764 192.482 322.391Z" fill="#FCFCFC"/>
<path d="M209.15 203.645C205.358 203.645 202.29 206.713 202.29 210.505V279.536C204.128 280.308 206.527 280.775 209.15 280.775C211.773 280.775 214.172 280.308 216.01 279.536L216.01 210.505C216.01 206.713 212.942 203.645 209.15 203.645Z" fill="#323232"/>
<path fill-rule="evenodd" clip-rule="evenodd" d="M182.753 280.215C182.753 277.12 181.032 274.231 178.074 272.079C175.118 269.927 170.984 268.565 166.373 268.565C161.763 268.565 157.629 269.927 154.672 272.079C151.715 274.231 149.993 277.12 149.993 280.215C149.993 283.31 151.715 286.199 154.672 288.351C157.629 290.503 161.763 291.865 166.373 291.865C170.984 291.865 175.118 290.503 178.074 288.351C181.032 286.199 182.753 283.31 182.753 280.215ZM166.374 269.615C169.385 269.615 172.16 270.205 174.22 271.203C176.211 272.168 177.854 273.693 177.854 275.695C177.854 277.697 176.211 279.222 174.22 280.187C172.16 281.185 169.385 281.775 166.374 281.775C163.362 281.775 160.587 281.185 158.527 280.187C156.536 279.222 154.894 277.697 154.894 275.695C154.894 273.693 156.536 272.168 158.527 271.203C160.587 270.205 163.362 269.615 166.374 269.615Z" fill="#FCFCFC"/>
<path d="M154.41 290.591C157.641 292.644 161.828 293.865 166.373 293.865C171.361 293.865 175.918 292.395 179.251 289.968C179.313 289.924 179.373 289.879 179.434 289.834C179.989 291.311 180.627 293.166 181.234 295.3C182.309 299.077 183.28 303.7 183.542 308.622C183.667 310.988 183.629 313.422 183.359 315.865C182.677 322.075 177.337 326.755 171.053 326.755H171.015L170.978 326.758C154.572 328.004 137.64 327.934 120.251 326.757L120.217 326.755H120.183C113.675 326.755 109.761 323.588 108.007 319.2C106.222 314.733 106.634 308.874 109.153 303.574C111.663 298.294 116.219 293.669 122.584 291.615C128.037 289.856 134.916 289.954 143.112 293.282C143.14 293.295 143.169 293.307 143.199 293.317C144.527 293.86 145.89 294.487 147.286 295.204L147.62 295.376C149.865 296.971 151.604 299.156 152.902 301.286C153.912 302.942 154.633 304.529 155.1 305.703C155.334 306.288 155.504 306.768 155.614 307.099C155.669 307.264 155.709 307.392 155.735 307.477C155.748 307.52 155.758 307.551 155.764 307.572L155.77 307.593L155.771 307.597C155.922 308.128 156.474 308.438 157.006 308.287C157.537 308.137 157.846 307.584 157.696 307.053L157.694 307.048L157.692 307.039L157.682 307.007C157.674 306.979 157.663 306.94 157.647 306.891C157.617 306.791 157.572 306.648 157.511 306.466C157.39 306.103 157.208 305.587 156.958 304.962C156.46 303.713 155.692 302.02 154.61 300.244C153.328 298.143 151.573 295.872 149.262 294.102C150.638 292.675 152.382 291.533 154.41 290.591Z" fill="#FCFCFC"/>
<path d="M183.041 322.391C180.447 326.25 176.013 328.742 171.092 328.755C154.6 330.005 137.595 329.935 120.149 328.755C115.216 328.747 111.489 327.075 108.957 324.392C110.024 328.664 113.395 331.884 117.523 332.155H117.513C136.623 333.415 155.253 333.495 173.343 332.285C178.312 331.951 182.304 327.764 183.041 322.391Z" fill="#FCFCFC"/>
<path d="M166.373 203.645C170.166 203.645 173.233 206.713 173.233 210.505V279.536C171.395 280.308 168.997 280.775 166.373 280.775C163.75 280.775 161.352 280.308 159.513 279.536L159.513 210.505C159.513 206.713 162.581 203.645 166.373 203.645Z" fill="#323232"/>
</svg>
